<?xml version="1.0" standalone="no"?>
<!DOCTYPE svg PUBLIC "-//W3C//DTD SVG 20010904//EN"
 "http://www.w3.org/TR/2001/REC-SVG-20010904/DTD/svg10.dtd">
<svg version="1.0" xmlns="http://www.w3.org/2000/svg"
 width="1530.000000pt" height="1530.000000pt" viewBox="0 0 1530.000000 1530.000000"
 preserveAspectRatio="xMidYMid meet">
<metadata>
Created by potrace 1.14, written by Peter Selinger 2001-2017
</metadata>
<g transform="translate(0.000000,1530.000000) scale(0.100000,-0.100000)"
fill="#000000" stroke="none">
<path d="M8411 15119 c-116 -15 -193 -45 -306 -119 -59 -39 -129 -91 -156
-117 l-49 -46 -91 42 c-158 74 -151 73 -824 76 -330 2 -791 6 -1025 10 -385 6
-430 8 -483 26 -83 28 -224 43 -427 45 -96 1 -267 3 -380 4 -129 1 -218 -2
-240 -9 -19 -6 -64 -11 -100 -11 -36 0 -79 -4 -96 -9 -18 -5 -93 -4 -185 2
-85 6 -224 12 -309 12 -85 1 -261 7 -390 14 -129 7 -278 11 -330 8 -307 -14
-574 -241 -634 -539 -20 -97 -20 -149 0 -246 17 -85 111 -296 200 -453 82
-144 201 -406 214 -472 6 -32 23 -91 36 -130 17 -51 24 -93 24 -151 0 -108 15
-203 47 -306 20 -68 26 -110 29 -208 3 -141 16 -212 51 -296 20 -49 26 -85 33
-205 8 -146 23 -229 61 -351 19 -59 21 -89 20 -328 -1 -285 8 -374 46 -467 22
-53 26 -82 34 -260 11 -240 5 -330 -28 -410 -36 -90 -53 -185 -53 -300 0 -57
-4 -106 -8 -109 -5 -3 -31 2 -58 10 -27 9 -94 18 -149 21 -205 11 -372 -51
-510 -191 -91 -92 -144 -183 -195 -333 -25 -76 -30 -107 -31 -189 0 -154 -4
-164 -76 -219 -148 -111 -253 -318 -253 -499 1 -96 26 -246 51 -301 19 -43 23
-73 29 -220 6 -151 10 -180 38 -265 16 -52 35 -136 41 -186 13 -112 35 -175
100 -296 27 -51 80 -158 116 -238 37 -80 73 -152 81 -161 7 -8 28 -62 44 -120
21 -71 62 -163 127 -289 99 -193 173 -389 173 -460 0 -58 26 -171 56 -242 23
-56 27 -83 34 -233 6 -139 11 -181 30 -230 35 -93 39 -145 47 -515 8 -392 8
-347 -2 -630 -6 -192 -9 -221 -30 -273 -13 -31 -31 -91 -40 -131 -15 -66 -24
-84 -85 -160 -37 -47 -82 -111 -100 -143 -18 -32 -54 -85 -80 -118 -26 -33
-65 -91 -85 -129 -21 -38 -55 -85 -75 -105 -105 -105 -316 -299 -344 -315 -17
-11 -54 -34 -81 -52 -28 -19 -92 -47 -143 -63 -51 -17 -118 -47 -150 -67 -130
-82 -236 -218 -288 -369 -23 -68 -28 -97 -28 -190 -1 -126 20 -211 82 -330 62
-119 227 -267 387 -348 76 -38 149 -57 264 -68 57 -5 129 -19 160 -30 76 -27
191 -49 259 -49 32 0 100 10 152 21 143 32 169 33 225 11 28 -11 75 -23 105
-26 94 -10 732 -21 1001 -17 141 2 266 0 277 -3 14 -5 47 -55 97 -144 41 -75
102 -171 135 -212 66 -83 257 -262 337 -315 101 -68 316 -171 383 -184 36 -7
101 -26 145 -42 44 -16 100 -34 125 -39 67 -16 976 -24 1060 -10 35 6 96 24
135 40 38 15 106 36 150 45 44 9 105 24 135 35 30 10 91 26 135 35 44 9 118
34 165 56 47 23 126 56 175 74 50 18 117 45 150 60 33 15 107 47 164 72 107
46 161 78 268 160 34 27 89 64 121 85 l60 36 31 -19 c18 -11 55 -38 83 -60 75
-59 149 -93 332 -154 170 -57 289 -85 356 -85 22 0 59 -9 81 -21 23 -11 66
-25 97 -30 85 -15 1144 -22 1212 -8 30 6 89 25 130 41 41 17 89 30 105 30 73
-2 200 19 253 42 31 14 94 29 140 35 45 6 115 22 155 36 39 14 122 43 182 64
133 46 205 82 310 156 44 31 109 76 146 99 72 48 216 173 354 307 108 105 216
194 269 221 21 11 81 61 134 111 96 94 162 177 202 257 13 24 44 71 71 104 26
33 65 94 86 135 21 42 55 107 76 146 62 114 146 333 147 381 0 12 14 48 31 80
121 231 130 267 132 514 1 210 -8 261 -69 382 -102 203 -281 348 -486 393 -92
20 -92 20 -54 149 14 44 32 133 41 196 17 120 22 147 56 270 21 75 22 98 16
350 -1 47 2 158 7 246 7 133 5 188 -9 307 -17 136 -17 154 -2 279 9 73 19 187
23 253 5 89 13 139 32 195 21 62 26 99 30 210 2 74 0 167 -6 205 -7 53 -6 88
4 140 29 151 12 295 -50 431 -20 42 -36 84 -36 93 0 20 20 50 99 147 76 94
123 188 152 304 11 47 27 96 35 110 8 14 28 63 45 110 17 47 44 123 61 170 28
75 32 101 36 221 6 174 -12 268 -74 396 -49 102 -142 207 -226 257 -45 26 -46
27 -41 69 3 23 12 60 20 82 46 127 63 192 73 283 7 66 19 120 35 154 31 68 45
157 45 284 0 85 4 113 26 170 47 125 47 117 57 999 2 227 3 231 32 310 27 73
29 91 30 215 0 124 -2 141 -29 215 -28 78 -29 85 -36 360 -8 289 -13 325 -59
443 -16 41 -21 75 -21 151 0 101 -23 219 -55 281 -9 18 -21 75 -27 128 -14
128 -72 318 -173 562 -139 338 -277 530 -596 834 -155 147 -247 209 -494 332
-217 107 -281 130 -400 141 -38 3 -90 15 -115 25 -25 11 -81 28 -125 39 -74
17 -122 19 -605 19 -569 0 -543 2 -725 -58 -147 -49 -234 -55 -358 -29 -49 11
-124 17 -200 17 -115 0 -228 16 -293 41 -44 16 -212 39 -279 38 -33 -1 -89 -5
-124 -10z m2385 -679 c131 -21 269 -48 306 -60 166 -51 405 -177 535 -283 86
-69 110 -98 323 -388 132 -179 144 -205 216 -434 39 -123 116 -491 133 -634 7
-51 25 -152 41 -225 16 -72 38 -219 49 -326 12 -107 25 -234 31 -281 14 -117
13 -210 -5 -401 -9 -90 -19 -327 -24 -528 -9 -375 -15 -428 -76 -780 -8 -47
-21 -133 -29 -191 -9 -59 -33 -179 -56 -267 -22 -89 -40 -174 -40 -189 0 -34
-71 -285 -105 -368 -46 -116 -127 -281 -188 -384 -78 -130 -134 -183 -346
-326 -219 -148 -243 -162 -336 -200 -44 -18 -114 -48 -155 -65 -41 -18 -96
-38 -121 -45 -25 -7 -90 -27 -144 -44 -100 -33 -156 -42 -375 -61 -69 -6 -172
-18 -230 -27 -84 -12 -150 -14 -330 -9 -295 9 -333 12 -377 26 -58 19 -103 58
-126 108 -19 44 -19 48 -3 97 9 27 39 241 67 475 27 234 65 553 84 710 30 247
56 495 96 895 6 55 21 156 34 225 31 162 82 574 95 763 5 81 12 158 15 170 4
13 8 234 9 492 2 259 9 549 15 645 12 170 10 277 -9 525 -5 66 -14 197 -20
290 -17 276 -71 677 -120 891 -6 26 -6 54 1 78 18 64 63 78 424 124 402 52
443 52 741 2z m-1818 -25 c144 -4 198 -8 213 -19 37 -25 67 -76 73 -124 4 -26
20 -114 36 -197 16 -82 32 -181 35 -220 4 -38 15 -141 26 -228 10 -87 19 -197
19 -245 0 -48 7 -161 15 -252 8 -91 19 -316 24 -500 21 -704 33 -1350 29
-1485 -4 -131 -65 -665 -123 -1075 -14 -96 -32 -247 -40 -335 -8 -88 -24 -218
-35 -290 -11 -71 -25 -188 -30 -260 -5 -71 -24 -211 -43 -310 -36 -184 -77
-434 -97 -585 -11 -85 -36 -235 -45 -277 -8 -33 -41 -50 -120 -63 -38 -6 -149
-28 -245 -50 -167 -37 -247 -49 -480 -70 -58 -6 -154 -18 -214 -27 -97 -15
-127 -15 -265 -4 -86 7 -158 14 -160 16 -3 4 37 56 96 124 34 40 79 131 119
241 12 36 50 133 83 217 66 169 94 261 141 468 35 154 121 456 181 635 30 93
42 154 63 320 14 113 35 279 46 370 11 91 25 260 31 375 5 116 17 273 26 350
12 93 18 237 20 430 1 160 3 425 5 590 6 620 -11 1920 -28 2132 l-16 201 27
45 c56 97 117 119 310 111 72 -3 217 -7 323 -9z m-5775 -11 c67 -8 149 -22
182 -30 111 -28 593 -38 1135 -24 386 10 511 10 615 1 72 -7 320 -16 551 -20
232 -5 426 -11 432 -15 16 -9 564 -27 957 -31 310 -2 348 -5 433 -25 52 -12
90 -26 85 -30 -4 -4 -66 -32 -138 -60 -147 -60 -219 -94 -390 -188 -280 -153
-388 -233 -487 -365 -34 -45 -94 -122 -133 -172 -75 -93 -227 -306 -326 -456
-130 -196 -192 -360 -309 -824 -103 -408 -112 -475 -114 -845 -1 -422 9 -527
84 -820 113 -440 146 -526 323 -825 107 -181 134 -212 293 -342 164 -135 267
-178 480 -203 91 -10 146 -19 382 -64 102 -20 220 -20 290 -2 38 10 52 11 52
3 -1 -25 -39 -94 -77 -137 -22 -25 -59 -72 -83 -105 -60 -82 -254 -287 -317
-335 -63 -48 -211 -134 -313 -182 -114 -54 -251 -94 -390 -113 l-125 -18 -173
53 c-200 62 -268 97 -361 190 -108 107 -278 350 -310 443 -10 29 -50 126 -88
217 -39 91 -89 209 -112 263 -70 166 -167 533 -191 722 -5 39 -18 122 -29 185
-11 63 -34 246 -51 405 -17 160 -42 369 -56 465 -29 201 -48 544 -38 706 l6
110 -42 13 c-23 7 -92 15 -152 18 l-110 6 6 -29 c3 -16 22 -188 41 -383 24
-243 44 -396 64 -485 16 -72 32 -160 36 -196 3 -36 15 -130 26 -210 10 -80 33
-262 49 -405 17 -143 38 -305 47 -360 21 -122 23 -476 5 -790 -21 -382 -44
-461 -215 -764 -50 -88 -103 -166 -137 -202 -50 -53 -66 -62 -170 -102 -63
-25 -167 -56 -230 -70 -137 -31 -341 -52 -402 -43 -65 10 -185 72 -279 146
-222 173 -230 182 -349 340 -203 272 -253 371 -266 524 -6 81 10 241 25 251 4
2 22 -24 41 -58 73 -135 182 -261 260 -302 89 -46 251 -18 310 53 40 49 129
203 171 297 76 168 99 271 149 651 6 45 24 150 41 235 46 235 50 442 15 794
-66 665 -123 1205 -141 1335 -26 190 -103 607 -159 861 -9 37 -22 138 -31 225
-9 88 -25 192 -36 233 -61 228 -250 647 -363 804 -39 54 -51 78 -43 86 14 14
6 14 150 -5z m4501 -769 c203 -76 273 -147 401 -404 29 -58 61 -124 70 -146
42 -99 59 -411 30 -560 -34 -180 -89 -305 -127 -293 -7 3 -20 34 -29 70 -43
170 -89 235 -207 291 -78 36 -159 39 -219 8 -75 -38 -189 -125 -265 -202 -62
-62 -85 -95 -121 -170 -97 -201 -121 -325 -107 -534 5 -72 12 -152 16 -179 15
-116 110 -335 177 -412 35 -40 43 -44 85 -44 100 1 206 64 335 199 90 94 138
166 184 277 37 85 37 86 54 63 19 -26 34 -134 24 -177 -3 -15 10 -176 30 -358
58 -543 68 -872 29 -1005 -19 -67 -106 -273 -136 -326 -44 -76 -129 -161 -198
-197 -82 -43 -184 -82 -275 -104 -106 -26 -405 -21 -539 8 -134 29 -245 81
-338 156 -98 80 -277 346 -345 512 -44 109 -45 111 -98 322 -87 346 -114 482
-125 625 -6 77 -15 175 -20 218 -10 80 1 298 21 412 6 33 30 139 54 235 24 96
60 247 80 335 66 282 127 432 253 625 77 116 193 275 246 336 50 56 384 307
461 347 76 38 182 66 307 81 172 21 216 20 292 -9z m4771 -5212 c-4 -10 -15
-40 -25 -68 -53 -149 -185 -464 -210 -499 -15 -23 -58 -96 -95 -161 -133 -238
-250 -380 -590 -713 -241 -236 -298 -282 -477 -386 -73 -42 -346 -156 -373
-156 -3 0 -87 -30 -187 -66 -101 -36 -235 -79 -298 -96 -126 -32 -377 -64
-593 -75 -119 -5 -137 -8 -132 -22 10 -26 35 -488 35 -656 0 -180 -35 -1048
-50 -1248 -5 -72 -13 -237 -16 -366 -7 -260 0 -317 52 -447 35 -87 75 -155
144 -242 72 -92 126 -128 210 -140 62 -9 71 -8 197 33 216 71 238 87 430 311
33 38 70 88 81 110 23 45 45 148 67 319 9 66 25 167 35 225 11 59 23 179 26
271 11 262 -16 413 -104 589 -48 96 -205 264 -284 302 -308 151 -428 208 -437
208 -21 0 -101 44 -98 54 7 20 139 83 219 105 44 12 135 43 202 70 67 27 207
76 311 111 328 107 387 130 511 197 164 89 375 241 499 361 69 66 212 231 347
398 62 78 137 167 167 200 53 58 54 58 70 37 15 -18 17 -52 15 -334 -2 -282
-5 -334 -30 -509 -26 -179 -28 -224 -31 -550 -4 -497 -18 -890 -37 -975 -8
-38 -37 -179 -65 -313 -44 -210 -151 -627 -250 -969 -16 -56 -49 -150 -74
-210 -92 -223 -106 -261 -147 -397 -23 -76 -40 -139 -38 -141 7 -8 225 129
315 198 54 40 121 86 148 102 28 16 75 47 105 70 30 23 91 61 135 84 124 66
252 169 326 264 34 42 39 46 48 29 5 -10 12 -45 16 -77 5 -53 1 -72 -34 -170
-172 -482 -249 -641 -392 -819 -55 -68 -119 -142 -143 -163 -24 -21 -128 -118
-232 -217 -281 -266 -465 -408 -650 -504 -111 -56 -248 -106 -271 -98 -8 3
-68 -10 -135 -29 -116 -34 -170 -45 -553 -119 -288 -55 -566 -57 -843 -7 -335
62 -497 101 -577 139 -190 91 -345 224 -345 294 0 10 33 118 74 240 71 216 82
254 125 458 34 157 40 210 65 565 30 407 44 1081 27 1305 -6 80 -17 233 -25
340 -8 107 -22 348 -31 535 -8 187 -18 358 -20 380 -13 92 -59 342 -75 405 -5
19 -14 67 -19 105 -13 87 -60 238 -117 371 -51 120 -59 134 -188 338 -73 115
-116 172 -155 205 -29 25 -92 86 -140 135 -47 49 -126 120 -176 158 -49 39
-90 74 -90 79 0 16 210 109 270 120 33 6 98 19 145 30 47 10 119 24 160 30 41
6 116 21 165 34 50 13 128 29 175 35 47 6 147 20 223 31 76 11 236 26 355 34
275 19 525 48 937 110 88 13 221 31 295 40 295 36 422 57 585 100 192 50 451
128 600 182 105 38 408 182 560 266 94 53 350 222 360 238 11 17 27 10 20 -8z
m-9881 -170 c98 -122 272 -308 444 -475 220 -213 364 -316 562 -398 124 -52
178 -58 368 -41 142 14 168 22 249 83 237 176 391 320 496 464 70 97 142 169
181 184 67 25 243 51 306 45 74 -8 233 -47 397 -99 173 -54 265 -74 449 -96
93 -11 212 -31 264 -45 71 -19 140 -27 275 -35 99 -6 233 -20 297 -32 l117
-21 -4 -121 c-3 -66 -7 -213 -10 -326 -5 -190 -19 -387 -27 -396 -2 -2 -52
-13 -111 -24 -58 -11 -123 -27 -144 -34 -21 -7 -79 -19 -128 -25 -50 -6 -141
-21 -203 -32 -86 -16 -134 -20 -200 -16 -270 19 -294 19 -354 7 -112 -22 -346
-126 -448 -200 -30 -22 -81 -58 -113 -81 -74 -51 -310 -261 -365 -324 -44 -50
-126 -185 -163 -270 l-21 -47 64 -59 c34 -32 68 -58 73 -58 6 -1 44 27 85 60
96 77 183 129 290 172 47 19 123 51 170 72 163 71 346 133 440 149 62 11 187
19 361 23 224 5 277 4 335 -10 38 -9 97 -21 132 -27 35 -6 105 -25 155 -41
105 -34 297 -127 297 -143 0 -6 -24 -17 -52 -24 -29 -7 -91 -30 -138 -52 -47
-21 -116 -51 -155 -66 -77 -29 -483 -232 -635 -317 -160 -89 -208 -126 -374
-287 -217 -212 -415 -456 -530 -655 -109 -190 -334 -641 -370 -743 -19 -53
-55 -153 -81 -222 -26 -69 -63 -170 -82 -225 -36 -101 -195 -683 -228 -830
-23 -104 -61 -255 -123 -485 -27 -102 -55 -210 -61 -241 -16 -76 -51 -116
-118 -133 -32 -9 -150 -16 -320 -21 -236 -6 -290 -5 -448 13 -231 27 -393 34
-732 33 -227 0 -295 3 -391 19 -177 29 -323 63 -319 73 1 5 43 24 92 42 109
38 148 58 262 131 205 132 249 169 404 349 123 142 202 246 370 490 168 243
231 355 272 490 19 61 41 124 50 142 22 42 33 124 53 398 18 258 15 431 -16
985 -26 457 -67 747 -175 1225 -41 179 -46 194 -123 360 -102 221 -191 423
-262 595 -37 91 -84 201 -105 245 -88 187 -108 235 -136 325 -46 153 -92 403
-122 663 -2 15 0 26 4 25 4 -2 37 -40 73 -85z m5246 -2554 c117 -14 274 -76
322 -126 67 -71 83 -126 103 -343 17 -180 31 -390 32 -458 1 -24 17 -211 37
-415 28 -298 38 -452 47 -777 15 -571 -1 -763 -96 -1140 -8 -30 -23 -122 -35
-205 -12 -82 -25 -163 -30 -180 -70 -238 -94 -289 -187 -389 -48 -51 -229
-196 -348 -278 -173 -120 -499 -298 -688 -377 -115 -48 -391 -134 -497 -155
-42 -8 -105 -22 -142 -31 -109 -25 -314 -45 -463 -45 -226 0 -297 12 -500 80
-255 86 -348 138 -407 228 -88 133 -154 241 -169 281 -90 229 -98 263 -99 418
0 249 102 820 230 1278 11 39 38 138 60 220 47 175 88 294 169 489 32 78 66
164 75 191 37 107 111 270 164 358 64 106 106 163 371 497 227 286 251 315
311 360 25 19 74 60 110 90 86 75 239 180 320 220 83 42 258 104 335 120 33 6
114 24 180 40 74 17 179 33 275 40 85 7 157 14 159 16 9 8 280 4 361 -7z"/>
<path d="M10830 13125 c0 -5 9 -37 19 -70 38 -123 53 -282 54 -584 2 -689 -63
-1447 -178 -2066 -13 -71 -35 -197 -50 -278 -34 -202 -74 -362 -134 -547 -27
-85 -57 -179 -65 -209 l-16 -54 63 6 c51 4 426 113 540 156 16 6 39 11 52 11
19 0 25 6 29 33 14 81 86 841 96 1007 6 102 20 295 31 430 32 407 25 619 -37
1200 -24 225 -43 323 -86 437 -45 123 -317 574 -318 528z"/>
<path d="M5325 13519 c-44 -5 -276 -8 -517 -6 -240 1 -439 -1 -442 -4 -7 -6
35 -359 54 -459 5 -30 24 -115 42 -187 28 -117 35 -133 53 -133 11 0 75 7 142
15 67 8 186 22 265 30 112 12 146 19 156 33 30 40 144 255 191 359 49 110 80
161 180 296 l51 67 -48 -1 c-26 -1 -83 -6 -127 -10z"/>
<path d="M6822 4175 c-41 -18 -175 -151 -263 -262 -74 -94 -237 -394 -293
-540 -83 -218 -136 -528 -123 -718 11 -151 71 -283 151 -330 56 -32 279 -88
322 -80 18 3 60 26 94 51 48 35 76 69 136 160 123 188 159 283 265 706 l69
278 0 198 c0 315 -29 439 -118 499 -26 18 -60 37 -75 43 -40 14 -126 12 -165
-5z"/>
</g>
</svg>
